<svg width="28" height="28" viewBox="0 0 28 28" fill="none" xmlns="http://www.w3.org/2000/svg">
<path fill-rule="evenodd" clip-rule="evenodd" d="M0 14C0 6.26801 6.26801 0 14 0C21.732 0 28 6.26801 28 14C28 21.732 21.732 28 14 28C6.26801 28 0 21.732 0 14ZM9.89146 11.5957H6.71875V21.1284H9.89146V11.5957ZM10.1005 8.64657C10.0799 7.7119 9.41155 7 8.32619 7C7.24082 7 6.53125 7.7119 6.53125 8.64657C6.53125 9.56188 7.21985 10.2943 8.285 10.2943H8.30528C9.41155 10.2943 10.1005 9.56188 10.1005 8.64657ZM21.3343 15.6619C21.3343 12.7338 19.7691 11.3711 17.6813 11.3711C15.9968 11.3711 15.2426 12.2963 14.8215 12.9454V11.5952H11.6484C11.6903 12.4897 11.6484 21.1279 11.6484 21.1279H14.8215V15.804C14.8215 15.5191 14.8421 15.2349 14.926 15.0309C15.1553 14.4618 15.6774 13.8725 16.5539 13.8725C17.7025 13.8725 18.1616 14.7466 18.1616 16.0276V21.1276H21.3341L21.3343 15.6619Z" fill="#B5B5BE"/>
</svg>
