<svg width="229" height="49" viewBox="0 0 229 49" fill="none" xmlns="http://www.w3.org/2000/svg">
<path fill-rule="evenodd" clip-rule="evenodd" d="M30.3703 4.36634H18.6297C15.2972 4.36634 13.0603 4.36973 11.3378 4.51047C9.66622 4.64704 8.867 4.89087 8.33977 5.15951C6.97047 5.8572 5.8572 6.97047 5.15951 8.33977C4.89087 8.867 4.64704 9.66622 4.51047 11.3378C4.36973 13.0603 4.36634 15.2972 4.36634 18.6297V30.3703C4.36634 33.7029 4.36973 35.9397 4.51047 37.6622C4.64704 39.3338 4.89087 40.133 5.15951 40.6602C5.8572 42.0295 6.97047 43.1428 8.33977 43.8405C8.867 44.1091 9.66622 44.353 11.3378 44.4895C13.0603 44.6303 15.2972 44.6337 18.6297 44.6337H30.3703C33.7029 44.6337 35.9397 44.6303 37.6622 44.4895C39.3338 44.353 40.133 44.1091 40.6602 43.8405C42.0295 43.1428 43.1428 42.0295 43.8405 40.6602C44.1091 40.133 44.353 39.3338 44.4895 37.6622C44.6303 35.9397 44.6337 33.7028 44.6337 30.3703V18.6297C44.6337 15.2972 44.6303 13.0603 44.4895 11.3378C44.353 9.66622 44.1091 8.867 43.8405 8.33977C43.1428 6.97047 42.0295 5.8572 40.6602 5.15951C40.133 4.89087 39.3338 4.64704 37.6622 4.51047C35.9397 4.36973 33.7028 4.36634 30.3703 4.36634ZM1.26907 6.3575C0 8.84819 0 12.1087 0 18.6297V30.3703C0 36.8913 0 40.1518 1.26907 42.6425C2.38538 44.8334 4.16662 46.6146 6.3575 47.7309C8.84819 49 12.1087 49 18.6297 49H30.3703C36.8913 49 40.1518 49 42.6425 47.7309C44.8334 46.6146 46.6146 44.8334 47.7309 42.6425C49 40.1518 49 36.8913 49 30.3703V18.6297C49 12.1087 49 8.84819 47.7309 6.3575C46.6146 4.16662 44.8334 2.38538 42.6425 1.26907C40.1518 0 36.8913 0 30.3703 0H18.6297C12.1087 0 8.84819 0 6.3575 1.26907C4.16662 2.38538 2.38538 4.16662 1.26907 6.3575Z" fill="#EA5930"/>
<path d="M35.8259 12.4182H31.3073C30.8653 12.4182 30.6197 12.7129 30.5706 13.1549L30.4232 15.4142C28.606 13.3514 26.1502 11.8779 23.1051 11.8779C16.3763 11.8779 11.4648 17.477 11.4648 24.5005C11.4648 31.5239 16.3763 37.123 23.1051 37.123C26.2485 37.123 28.6551 35.6987 30.3741 33.685L30.5706 35.7478C30.6197 36.1898 30.8653 36.4845 31.3073 36.4845H35.8259C36.2679 36.4845 36.5626 36.1898 36.5626 35.7478V13.1549C36.5626 12.7129 36.2679 12.4182 35.8259 12.4182ZM23.8909 31.2292C20.3055 31.2292 17.7024 28.3314 17.7024 24.4514C17.7024 20.6204 20.3055 17.7717 23.8909 17.7717C27.4272 17.7717 30.0303 20.8169 30.0303 24.4514C30.0303 28.0859 27.4272 31.2292 23.8909 31.2292Z" fill="#EA5930"/>
<path d="M85.6865 12.556H81.1075C80.6596 12.556 80.4107 12.8593 80.361 13.3143L80.2117 15.6395C78.3701 13.5165 75.8816 12 72.7958 12C65.9771 12 61 17.7626 61 24.991C61 32.2195 65.9771 37.9821 72.7958 37.9821C75.9811 37.9821 78.4199 36.5162 80.1619 34.4437L80.361 36.5667C80.4107 37.0217 80.6596 37.3249 81.1075 37.3249H85.6865C86.1344 37.3249 86.433 37.0217 86.433 36.5667V13.3143C86.433 12.8593 86.1344 12.556 85.6865 12.556ZM73.5921 31.9162C69.9588 31.9162 67.3209 28.9339 67.3209 24.9405C67.3209 20.9977 69.9588 18.0659 73.5921 18.0659C77.1756 18.0659 79.8135 21.1999 79.8135 24.9405C79.8135 28.6811 77.1756 31.9162 73.5921 31.9162Z" fill="#171725"/>
<path d="M108.518 13.1632L102.502 29.5408L96.4366 13.1632C96.2849 12.7588 95.9311 12.5566 95.5267 12.5566H90.3203C89.7642 12.5566 89.5115 12.8599 89.7137 13.416L99.0145 36.7186C99.1662 37.123 99.52 37.3252 99.9244 37.3252H105.08C105.485 37.3252 105.839 37.123 105.99 36.7186L115.24 13.416C115.443 12.8599 115.19 12.5566 114.634 12.5566H109.427C109.023 12.5566 108.669 12.7588 108.518 13.1632Z" fill="#171725"/>
<path d="M150.052 37.9821C157.07 37.9821 162.694 32.2701 162.694 24.991C162.694 17.712 157.07 12 150.052 12C143.034 12 137.41 17.712 137.41 24.991C137.41 32.2701 143.034 37.9821 150.052 37.9821ZM150.052 31.8151C146.518 31.8151 143.731 28.9844 143.731 24.991C143.731 20.9977 146.518 18.167 150.052 18.167C153.536 18.167 156.373 20.9977 156.373 24.991C156.373 28.9844 153.536 31.8151 150.052 31.8151Z" fill="#171725"/>
<path d="M135.406 12.5566H129.977H117.977C117.529 12.5566 117.23 12.8599 117.23 13.3149V17.2577C117.23 17.7126 117.529 18.0159 117.977 18.0159H123.407V36.5673C123.407 37.0223 123.705 37.3256 124.153 37.3256H129.23C129.678 37.3256 129.977 37.0223 129.977 36.5673V18.0159H135.406C135.854 18.0159 136.153 17.7126 136.153 17.2577V13.3149C136.153 12.8599 135.854 12.5566 135.406 12.5566Z" fill="#171725"/>
<ellipse cx="170.148" cy="34.0961" rx="3.84367" ry="3.90372" fill="#EA5930"/>
<path d="M202.23 12.5557H197.153C196.705 12.5557 196.407 12.859 196.407 13.3139V27.0126C196.407 28.7818 194.665 31.8147 191.131 31.8147C188.792 31.8147 186.453 30.3993 186.453 26.3049V13.3139C186.453 12.859 186.154 12.5557 185.706 12.5557H180.629C180.181 12.5557 179.883 12.859 179.883 13.3139V27.5181C179.883 34.1399 183.665 37.9816 189.14 37.9816C192.226 37.9816 194.715 36.2124 196.407 33.7861L196.606 36.5663C196.656 37.0212 196.904 37.3245 197.352 37.3245H202.23C202.678 37.3245 202.977 37.0212 202.977 36.5663V13.3139C202.977 12.859 202.678 12.5557 202.23 12.5557Z" fill="#EA5930"/>
<path d="M227.057 13.3139C227.057 12.859 226.759 12.5557 226.311 12.5557H207.199C206.751 12.5557 206.452 12.859 206.452 13.3139V17.2567C206.452 17.7116 206.751 18.0149 207.199 18.0149H219.193L206.8 31.4609C206.552 31.7136 206.452 32.0674 206.452 32.4213V36.5663C206.452 37.0212 206.751 37.3245 207.199 37.3245H226.311C226.759 37.3245 227.057 37.0212 227.057 36.5663V32.6235C227.057 32.1685 226.759 31.8653 226.311 31.8653H214.366L226.709 18.4193C226.958 18.1666 227.057 17.8127 227.057 17.4589V13.3139Z" fill="#EA5930"/>
</svg>
