<svg width="104" height="16" viewBox="0 0 104 16" fill="none" xmlns="http://www.w3.org/2000/svg">
<path d="M15.4291 0.342178H12.5672C12.2872 0.342178 12.1317 0.528819 12.1006 0.808782L12.0073 2.2397C10.8563 0.93321 9.30098 0 7.37235 0C3.1107 0 0 3.54619 0 7.99449C0 12.4428 3.1107 15.989 7.37235 15.989C9.3632 15.989 10.8874 15.0869 11.9762 13.8115L12.1006 15.118C12.1317 15.3979 12.2872 15.5846 12.5672 15.5846H15.4291C15.709 15.5846 15.8957 15.3979 15.8957 15.118V0.808782C15.8957 0.528819 15.709 0.342178 15.4291 0.342178ZM7.87006 12.2561C5.59925 12.2561 3.95058 10.4208 3.95058 7.96338C3.95058 5.53704 5.59925 3.73284 7.87006 3.73284C10.1098 3.73284 11.7584 5.66147 11.7584 7.96338C11.7584 10.2653 10.1098 12.2561 7.87006 12.2561Z" fill="#171725"/>
<path d="M32.5061 0.341797H29.3332C29.0532 0.341797 28.8666 0.528438 28.8666 0.808401V9.23838C28.8666 10.3271 27.7778 12.1935 25.5692 12.1935C24.1072 12.1935 22.6452 11.3226 22.6452 8.80289V0.808401C22.6452 0.528438 22.4585 0.341797 22.1786 0.341797H19.0057C18.7257 0.341797 18.5391 0.528438 18.5391 0.808401V9.54945C18.5391 13.6245 20.9032 15.9886 24.325 15.9886C26.2536 15.9886 27.8089 14.8999 28.8666 13.4067L28.991 15.1176C29.0221 15.3976 29.1776 15.5842 29.4576 15.5842H32.5061C32.786 15.5842 32.9727 15.3976 32.9727 15.1176V0.808401C32.9727 0.528438 32.786 0.341797 32.5061 0.341797Z" fill="#171725"/>
<path d="M55.6551 15.989C60.0412 15.989 63.5562 12.4739 63.5562 7.99449C63.5562 3.51509 60.0412 0 55.6551 0C51.269 0 47.7539 3.51509 47.7539 7.99449C47.7539 12.4739 51.269 15.989 55.6551 15.989ZM55.6551 12.1939C53.4465 12.1939 51.7045 10.4519 51.7045 7.99449C51.7045 5.53704 53.4465 3.79505 55.6551 3.79505C57.8326 3.79505 59.6057 5.53704 59.6057 7.99449C59.6057 10.4519 57.8326 12.1939 55.6551 12.1939Z" fill="#171725"/>
<path d="M46.5044 0.341797H43.1108H35.6111C35.3312 0.341797 35.1445 0.528438 35.1445 0.808401V3.23474C35.1445 3.51471 35.3312 3.70135 35.6111 3.70135H39.0047V15.1176C39.0047 15.3976 39.1914 15.5842 39.4713 15.5842H42.6442C42.9242 15.5842 43.1108 15.3976 43.1108 15.1176V3.70135H46.5044C46.7844 3.70135 46.971 3.51471 46.971 3.23474V0.808401C46.971 0.528438 46.7844 0.341797 46.5044 0.341797Z" fill="#171725"/>
<circle cx="68.2187" cy="13.5976" r="2.40229" fill="#EA5930"/>
<path d="M88.2678 0.341797H85.0949C84.8149 0.341797 84.6283 0.528438 84.6283 0.8084V9.23836C84.6283 10.3271 83.5395 12.1935 81.3309 12.1935C79.8689 12.1935 78.4069 11.3225 78.4069 8.80287V0.8084C78.4069 0.528438 78.2202 0.341797 77.9403 0.341797H74.7674C74.4874 0.341797 74.3008 0.528438 74.3008 0.8084V9.54943C74.3008 13.6244 76.6649 15.9886 80.0867 15.9886C82.0153 15.9886 83.5706 14.8998 84.6283 13.4067L84.7527 15.1176C84.7838 15.3975 84.9393 15.5842 85.2193 15.5842H88.2678C88.5477 15.5842 88.7344 15.3975 88.7344 15.1176V0.8084C88.7344 0.528438 88.5477 0.341797 88.2678 0.341797Z" fill="#EA5930"/>
<path d="M103.785 0.8084C103.785 0.528438 103.598 0.341797 103.318 0.341797H91.3731C91.0931 0.341797 90.9065 0.528438 90.9065 0.8084V3.23474C90.9065 3.5147 91.0931 3.70134 91.3731 3.70134H98.8699L91.1243 11.9758C90.9687 12.1313 90.9065 12.3491 90.9065 12.5668V15.1176C90.9065 15.3975 91.0931 15.5842 91.3731 15.5842H103.318C103.598 15.5842 103.785 15.3975 103.785 15.1176V12.6912C103.785 12.4113 103.598 12.2246 103.318 12.2246H95.8525L103.567 3.95019C103.723 3.79466 103.785 3.57691 103.785 3.35916V0.8084Z" fill="#EA5930"/>
</svg>
