<svg width="136" height="40" viewBox="0 0 136 40" fill="none" xmlns="http://www.w3.org/2000/svg">
<g clip-path="url(#clip0_8578_28598)">
<path fill-rule="evenodd" clip-rule="evenodd" d="M130.662 40H5.6659C2.90918 40 0.664062 37.7456 0.664062 35V5C0.664062 2.24439 2.90918 0 5.6659 0H130.662C133.416 0 135.664 2.24439 135.664 5V35C135.664 37.7456 133.416 40 130.662 40Z" fill="black"/>
<path fill-rule="evenodd" clip-rule="evenodd" d="M130.662 0.800499C132.974 0.800499 134.867 2.68828 134.867 5V35C134.867 37.3117 132.987 39.1995 130.662 39.1995H5.6659C3.35373 39.1995 1.46128 37.3117 1.46128 35V5C1.46128 2.68828 3.34131 0.800499 5.6659 0.800499H130.662ZM130.662 0H5.6659C2.90918 0 0.664062 2.25436 0.664062 5V35C0.664062 37.7556 2.90918 40 5.6659 40H130.662C133.416 40 135.664 37.7556 135.664 35V5C135.664 2.25436 133.416 0 130.662 0Z" fill="#A6A6A6"/>
<path d="M71.7832 13.232C70.8817 13.232 70.1217 12.9153 69.5207 12.2918C68.9247 11.6858 68.5919 10.8504 68.6068 9.99755C68.6068 9.08732 68.9147 8.31675 69.5207 7.70577C70.1192 7.08233 70.8792 6.76562 71.7807 6.76562C72.6723 6.76562 73.4323 7.08233 74.0432 7.70577C74.6492 8.3367 74.9571 9.10727 74.9571 9.99755C74.9472 10.9103 74.6393 11.6808 74.0432 12.2893C73.4447 12.9177 72.6847 13.232 71.7832 13.232ZM44.9587 13.232C44.0771 13.232 43.3121 12.9202 42.6863 12.3043C42.0654 11.6908 41.75 10.9153 41.75 10C41.75 9.08483 42.0654 8.30927 42.6863 7.6958C43.2997 7.07984 44.0646 6.76812 44.9587 6.76812C45.3958 6.76812 45.8205 6.8554 46.2278 7.03246C46.6276 7.20453 46.953 7.43894 47.1939 7.72572L47.2535 7.79804L46.5804 8.46139L46.5109 8.37909C46.1309 7.92523 45.6218 7.70328 44.9488 7.70328C44.3478 7.70328 43.8237 7.91774 43.3916 8.34169C42.957 8.76812 42.736 9.32672 42.736 10.0025C42.736 10.6783 42.957 11.2369 43.3916 11.6634C43.8237 12.0873 44.3478 12.3018 44.9488 12.3018C45.5895 12.3018 46.1284 12.0873 46.5482 11.6634C46.7965 11.414 46.9505 11.0649 47.0051 10.6235H44.8469V9.69081H47.9315L47.9439 9.7756C47.9662 9.93271 47.9886 10.0948 47.9886 10.2444C47.9886 11.1048 47.7303 11.8005 47.2187 12.3143C46.6376 12.9227 45.8776 13.232 44.9587 13.232ZM80.6245 13.0998H79.6733L76.7602 8.41899L76.785 9.26188V13.0973H75.8338V6.90029H76.9191L76.9489 6.94767L79.6882 11.3566L79.6634 10.5162V6.90029H80.6245V13.0998ZM64.6356 13.0998H63.672V7.83296H62.0006V6.90029H66.3046V7.83296H64.6332V13.0998H64.6356ZM61.2158 13.0998H60.2547V6.90029H61.2158V13.0998ZM55.8142 13.0998H54.853V7.83296H53.1816V6.90029H57.4856V7.83296H55.8142V13.0998ZM52.5732 13.0898H48.8876V6.90029H52.5732V7.83296H49.8512V9.5337H52.3074V10.4564H49.8512V12.1571H52.5732V13.0898ZM70.226 11.6509C70.6557 12.0823 71.1772 12.2993 71.7832 12.2993C72.4066 12.2993 72.9157 12.0873 73.3404 11.6509C73.7626 11.227 73.9762 10.6709 73.9762 10C73.9762 9.32922 73.7626 8.77061 73.3429 8.34917C72.9132 7.91774 72.3892 7.70079 71.7857 7.70079C71.1623 7.70079 70.6532 7.91276 70.231 8.34917C69.8088 8.77311 69.5952 9.32922 69.5952 10C69.5952 10.6709 69.8063 11.2295 70.226 11.6509Z" fill="white"/>
<path fill-rule="evenodd" clip-rule="evenodd" d="M68.5149 21.7554C66.168 21.7554 64.2656 23.5434 64.2656 26.0098C64.2656 28.4537 66.1804 30.2641 68.5149 30.2641C70.8619 30.2641 72.7643 28.4636 72.7643 26.0098C72.7643 23.5434 70.8619 21.7554 68.5149 21.7554ZM68.5149 28.5784C67.2309 28.5784 66.1258 27.511 66.1258 25.9998C66.1258 24.4661 67.2334 23.4213 68.5149 23.4213C69.7989 23.4213 70.9041 24.4661 70.9041 25.9998C70.9066 27.521 69.7989 28.5784 68.5149 28.5784ZM59.2439 21.7554C56.8969 21.7554 54.9945 23.5434 54.9945 26.0098C54.9945 28.4537 56.9093 30.2641 59.2439 30.2641C61.5908 30.2641 63.4932 28.4636 63.4932 26.0098C63.4932 23.5434 61.5883 21.7554 59.2439 21.7554ZM59.2439 28.5784C57.9599 28.5784 56.8547 27.511 56.8547 25.9998C56.8547 24.4661 57.9624 23.4213 59.2439 23.4213C60.5279 23.4213 61.633 24.4661 61.633 25.9998C61.633 27.521 60.5279 28.5784 59.2439 28.5784ZM48.212 23.0547V24.8552H52.516C52.3843 25.8651 52.0515 26.6108 51.5424 27.122C50.9116 27.7554 49.9381 28.4437 48.2219 28.4437C45.577 28.4437 43.5082 26.2991 43.5082 23.6432C43.5082 20.9873 45.577 18.8427 48.2219 18.8427C49.65 18.8427 50.6906 19.4088 51.4629 20.132L52.7345 18.8552C51.6616 17.8227 50.2336 17.0322 48.2319 17.0322C44.6034 17.0322 41.5586 19.9998 41.5586 23.6332C41.5586 27.2766 44.6009 30.2342 48.2319 30.2342C50.1914 30.2342 51.6616 29.5908 52.8239 28.3789C54.0086 27.1893 54.3836 25.511 54.3836 24.1569C54.3836 23.7355 54.3513 23.3564 54.2842 23.0347H48.2095C48.212 23.0322 48.212 23.0547 48.212 23.0547ZM93.3354 24.4562C92.9803 23.5011 91.9074 21.7454 89.707 21.7454C87.5264 21.7454 85.7134 23.4686 85.7134 25.9998C85.7134 28.3888 87.5065 30.2542 89.9181 30.2542C91.8552 30.2542 92.9827 29.0646 93.4472 28.3664L92.0092 27.3988C91.5324 28.1095 90.8693 28.5759 89.928 28.5759C88.9768 28.5759 88.3112 28.142 87.8691 27.2866L93.5341 24.93C93.5341 24.9325 93.3354 24.4562 93.3354 24.4562ZM87.5587 25.8776C87.514 24.2342 88.8303 23.3988 89.7715 23.3988C90.5141 23.3988 91.1325 23.7654 91.3436 24.2991L87.5587 25.8776ZM82.9567 29.9998H84.8169V17.5011H82.9567V29.9998ZM79.9019 22.7006H79.8349C79.4152 22.1993 78.618 21.7454 77.5997 21.7454C75.4862 21.7454 73.5391 23.6133 73.5391 26.0123C73.5391 28.4013 75.4763 30.2467 77.5997 30.2467C78.6055 30.2467 79.4152 29.7903 79.8349 29.2791H79.9019V29.8901C79.9019 31.5135 79.0377 32.3888 77.6444 32.3888C76.5045 32.3888 75.7967 31.5659 75.5086 30.8776L73.8918 31.5559C74.3562 32.6781 75.5955 34.0671 77.6419 34.0671C79.8225 34.0671 81.6702 32.7779 81.6702 29.6332V21.9998H79.9119V22.7006C79.9144 22.7006 79.9019 22.7006 79.9019 22.7006ZM77.7661 28.5784C76.4821 28.5784 75.4092 27.5011 75.4092 26.0123C75.4092 24.511 76.4821 23.4237 77.7661 23.4237C79.0377 23.4237 80.0236 24.5235 80.0236 26.0123C80.0361 27.5011 79.0402 28.5784 77.7661 28.5784ZM102.045 17.5011H97.5972V29.9998H99.4573V25.2666H102.048C104.107 25.2666 106.131 23.7679 106.131 21.3888C106.131 19.0098 104.114 17.5011 102.045 17.5011ZM102.1 23.521H99.4548V19.2317H102.1C103.493 19.2317 104.28 20.3863 104.28 21.3764C104.28 22.3564 103.483 23.521 102.1 23.521ZM113.586 21.733C112.235 21.733 110.842 22.334 110.266 23.6432L111.915 24.3315C112.27 23.6432 112.921 23.4088 113.609 23.4088C114.572 23.4088 115.546 23.9873 115.568 25.0198V25.1519C115.235 24.9624 114.505 24.6731 113.631 24.6731C111.85 24.6731 110.045 25.6507 110.045 27.4836C110.045 29.1619 111.505 30.2392 113.132 30.2392C114.381 30.2392 115.069 29.6731 115.498 29.0173H115.566V29.9848H117.359V25.1968C117.359 22.9674 115.71 21.733 113.586 21.733ZM113.353 28.5784C112.744 28.5784 111.892 28.2791 111.892 27.511C111.892 26.5434 112.955 26.1769 113.862 26.1769C114.681 26.1769 115.069 26.3539 115.556 26.5983C115.422 27.7205 114.478 28.5684 113.353 28.5784ZM123.9 21.9998L121.764 27.4213H121.697L119.485 21.9998H117.483L120.803 29.5784L118.911 33.7903H120.848L125.957 21.9998H123.9ZM107.156 29.9998H109.016V17.5011H107.156V29.9998Z" fill="white"/>
<path fill-rule="evenodd" clip-rule="evenodd" d="M11.056 7.53315C10.768 7.84487 10.6016 8.32118 10.6016 8.94462V31.0568C10.6016 31.6803 10.768 32.1566 11.066 32.4558L11.143 32.5232L23.4812 20.1342V19.8573L11.133 7.46582L11.056 7.53315Z" fill="url(#paint0_linear_8578_28598)"/>
<path fill-rule="evenodd" clip-rule="evenodd" d="M27.584 24.2772L23.4688 20.1451V19.8558L27.584 15.7236L27.6734 15.7785L32.5412 18.5566C33.9344 19.3446 33.9344 20.6463 32.5412 21.4443L27.6734 24.2224L27.584 24.2772Z" fill="url(#paint1_linear_8578_28598)"/>
<path fill-rule="evenodd" clip-rule="evenodd" d="M27.6745 24.2219L23.4699 20L11.0547 32.4663C11.5092 32.9551 12.2716 33.01 13.1235 32.5337L27.6745 24.2219Z" fill="url(#paint2_linear_8578_28598)"/>
<path fill-rule="evenodd" clip-rule="evenodd" d="M27.6745 15.7784L13.1235 7.47918C12.2716 6.9904 11.5067 7.05774 11.0547 7.54651L23.4699 20.0004L27.6745 15.7784Z" fill="url(#paint3_linear_8578_28598)"/>
<path opacity="0.2" fill-rule="evenodd" clip-rule="evenodd" d="M27.587 24.1318L13.1352 32.3762C12.328 32.8425 11.6078 32.8101 11.1434 32.3862L11.0664 32.4635L11.1434 32.5308C11.6078 32.9523 12.328 32.9872 13.1352 32.5208L27.6863 24.2216L27.587 24.1318Z" fill="black"/>
<path opacity="0.12" fill-rule="evenodd" clip-rule="evenodd" d="M32.5438 21.2993L27.5742 24.1322L27.6636 24.2219L32.5314 21.4439C33.2292 21.0449 33.572 20.5212 33.572 20C33.5297 20.4788 33.1746 20.9327 32.5438 21.2993Z" fill="black"/>
<path opacity="0.25" fill-rule="evenodd" clip-rule="evenodd" d="M13.1248 7.62329L32.5436 18.7006C33.1744 19.0572 33.5296 19.5235 33.5842 19.9999C33.5842 19.4787 33.2415 18.955 32.5436 18.556L13.1248 7.47866C11.7316 6.67816 10.6016 7.34649 10.6016 8.94499V9.08963C10.6016 7.48863 11.7316 6.83277 13.1248 7.62329Z" fill="white"/>
</g>
<defs>
<linearGradient id="paint0_linear_8578_28598" x1="22.3745" y1="8.70606" x2="2.60006" y2="13.9534" gradientUnits="userSpaceOnUse">
<stop stop-color="#00A0FF"/>
<stop offset="0.00657" stop-color="#00A1FF"/>
<stop offset="0.2601" stop-color="#00BEFF"/>
<stop offset="0.5122" stop-color="#00D2FF"/>
<stop offset="0.7604" stop-color="#00DFFF"/>
<stop offset="1" stop-color="#00E3FF"/>
</linearGradient>
<linearGradient id="paint1_linear_8578_28598" x1="34.3581" y1="20.0005" x2="10.2604" y2="20.0005" gradientUnits="userSpaceOnUse">
<stop stop-color="#FFE000"/>
<stop offset="0.4087" stop-color="#FFBD00"/>
<stop offset="0.7754" stop-color="#FFA500"/>
<stop offset="1" stop-color="#FF9C00"/>
</linearGradient>
<linearGradient id="paint2_linear_8578_28598" x1="25.3882" y1="22.2973" x2="9.42542" y2="49.0538" gradientUnits="userSpaceOnUse">
<stop stop-color="#FF3A44"/>
<stop offset="1" stop-color="#C31162"/>
</linearGradient>
<linearGradient id="paint3_linear_8578_28598" x1="7.92841" y1="0.179171" x2="15.0501" y2="12.1291" gradientUnits="userSpaceOnUse">
<stop stop-color="#32A071"/>
<stop offset="0.0685" stop-color="#2DA771"/>
<stop offset="0.4762" stop-color="#15CF74"/>
<stop offset="0.8009" stop-color="#06E775"/>
<stop offset="1" stop-color="#00F076"/>
</linearGradient>
<clipPath id="clip0_8578_28598">
<rect width="135" height="40" fill="white" transform="translate(0.664062)"/>
</clipPath>
</defs>
</svg>
