<svg width="24" height="24" viewBox="0 0 24 24" fill="none" xmlns="http://www.w3.org/2000/svg">
<path d="M4.43844 9.30039H19.5584M4.43844 14.7004H19.5584M11.5484 3.90039C10.0322 6.33004 9.22842 9.13647 9.22842 12.0004C9.22842 14.8643 10.0322 17.6707 11.5484 20.1004M12.4484 3.90039C13.9646 6.33004 14.7685 9.13647 14.7685 12.0004C14.7685 14.8643 13.9646 17.6707 12.4484 20.1004M20.0984 12.0004C20.0984 16.4739 16.4719 20.1004 11.9984 20.1004C7.52493 20.1004 3.89844 16.4739 3.89844 12.0004C3.89844 7.52688 7.52493 3.90039 11.9984 3.90039C16.4719 3.90039 20.0984 7.52688 20.0984 12.0004Z" stroke="#696974" stroke-width="1.3" stroke-linecap="round" stroke-linejoin="round"/>
</svg>
